<?xml version="1.0" encoding="utf-8"?>
<!-- Generator: Adobe Illustrator 27.5.0, SVG Export Plug-In . SVG Version: 6.00 Build 0)  -->
<svg version="1.1" xmlns="http://www.w3.org/2000/svg" xmlns:xlink="http://www.w3.org/1999/xlink" x="0px" y="0px"
	 viewBox="0 0 500 500" style="enable-background:new 0 0 500 500;" xml:space="preserve">
<g id="Background_Complete">
	<g>
		<rect y="382.398" style="fill:#EBEBEB;" width="500" height="0.25"/>
		<rect x="416.779" y="398.494" style="fill:#EBEBEB;" width="33.122" height="0.25"/>
		<rect x="322.527" y="401.208" style="fill:#EBEBEB;" width="8.693" height="0.25"/>
		<rect x="396.586" y="389.208" style="fill:#EBEBEB;" width="19.192" height="0.25"/>
		<rect x="52.459" y="390.888" style="fill:#EBEBEB;" width="43.193" height="0.25"/>
		<rect x="104.556" y="390.888" style="fill:#EBEBEB;" width="6.333" height="0.25"/>
		<rect x="131.471" y="395.111" style="fill:#EBEBEB;" width="93.676" height="0.25"/>
		<path style="fill:#EBEBEB;" d="M237.014,337.8H43.915c-3.147,0-5.708-2.561-5.708-5.708V60.66c0-3.147,2.561-5.708,5.708-5.708
			h193.099c3.146,0,5.707,2.561,5.707,5.708v271.432C242.721,335.239,240.16,337.8,237.014,337.8z M43.915,55.203
			c-3.01,0-5.458,2.448-5.458,5.458v271.432c0,3.01,2.448,5.458,5.458,5.458h193.099c3.009,0,5.457-2.448,5.457-5.458V60.66
			c0-3.009-2.448-5.458-5.457-5.458H43.915z"/>
		<path style="fill:#EBEBEB;" d="M453.31,337.8H260.212c-3.147,0-5.707-2.561-5.707-5.708V60.66c0-3.147,2.561-5.708,5.707-5.708
			H453.31c3.148,0,5.708,2.561,5.708,5.708v271.432C459.019,335.239,456.458,337.8,453.31,337.8z M260.212,55.203
			c-3.009,0-5.457,2.448-5.457,5.458v271.432c0,3.01,2.448,5.458,5.457,5.458H453.31c3.01,0,5.458-2.448,5.458-5.458V60.66
			c0-3.009-2.448-5.458-5.458-5.458H260.212z"/>
	</g>
	<g>
		<g>
			<rect x="222.095" y="106.178" style="fill:#EBEBEB;" width="91.948" height="207.136"/>
			
				<rect x="168.386" y="167.24" transform="matrix(-1.836970e-16 1 -1 -1.836970e-16 477.8145 -58.3233)" style="fill:#FAFAFA;" width="199.366" height="85.011"/>
			<rect x="267.092" y="109.064" style="fill:#F5F5F5;" width="1.954" height="202.306"/>
			<rect x="219.973" y="103.482" style="fill:#E0E0E0;" width="96.192" height="9.748"/>
			<g>
				<rect x="219.973" y="114.31" style="fill:#F5F5F5;" width="96.192" height="1.155"/>
				<rect x="219.973" y="116.932" style="fill:#F5F5F5;" width="96.192" height="1.155"/>
				<rect x="219.973" y="119.555" style="fill:#F5F5F5;" width="96.192" height="1.155"/>
				<rect x="219.973" y="122.177" style="fill:#F5F5F5;" width="96.192" height="1.155"/>
				<rect x="219.973" y="124.799" style="fill:#F5F5F5;" width="96.192" height="1.155"/>
				<rect x="219.973" y="127.422" style="fill:#F5F5F5;" width="96.192" height="1.155"/>
				<rect x="219.973" y="130.044" style="fill:#F5F5F5;" width="96.192" height="1.155"/>
				<rect x="219.973" y="132.667" style="fill:#F5F5F5;" width="96.192" height="1.155"/>
				<rect x="219.973" y="135.289" style="fill:#F5F5F5;" width="96.192" height="1.155"/>
				<rect x="219.973" y="137.911" style="fill:#F5F5F5;" width="96.192" height="1.155"/>
				<rect x="219.973" y="140.534" style="fill:#F5F5F5;" width="96.192" height="1.155"/>
				<rect x="219.973" y="143.156" style="fill:#F5F5F5;" width="96.192" height="1.155"/>
				<rect x="219.973" y="145.779" style="fill:#F5F5F5;" width="96.192" height="1.155"/>
				<rect x="219.973" y="148.401" style="fill:#F5F5F5;" width="96.192" height="1.155"/>
				<rect x="219.973" y="151.023" style="fill:#F5F5F5;" width="96.192" height="1.155"/>
				<rect x="219.973" y="153.646" style="fill:#F5F5F5;" width="96.192" height="1.155"/>
				<rect x="219.973" y="156.268" style="fill:#F5F5F5;" width="96.192" height="1.155"/>
				<rect x="219.973" y="158.891" style="fill:#F5F5F5;" width="96.192" height="1.155"/>
			</g>
		</g>
		<g>
			<rect x="330.955" y="106.178" style="fill:#EBEBEB;" width="91.948" height="207.136"/>
			
				<rect x="277.246" y="167.24" transform="matrix(-1.836970e-16 1 -1 -1.836970e-16 586.6745 -167.1833)" style="fill:#FAFAFA;" width="199.366" height="85.011"/>
			<rect x="375.952" y="109.064" style="fill:#F5F5F5;" width="1.954" height="202.306"/>
			<rect x="328.833" y="103.482" style="fill:#E0E0E0;" width="96.192" height="9.748"/>
			<g>
				<rect x="328.833" y="114.31" style="fill:#F5F5F5;" width="96.192" height="1.155"/>
				<rect x="328.833" y="116.932" style="fill:#F5F5F5;" width="96.192" height="1.155"/>
				<rect x="328.833" y="119.555" style="fill:#F5F5F5;" width="96.192" height="1.155"/>
				<rect x="328.833" y="122.177" style="fill:#F5F5F5;" width="96.192" height="1.155"/>
				<rect x="328.833" y="124.799" style="fill:#F5F5F5;" width="96.192" height="1.155"/>
				<rect x="328.833" y="127.422" style="fill:#F5F5F5;" width="96.192" height="1.155"/>
				<rect x="328.833" y="130.044" style="fill:#F5F5F5;" width="96.192" height="1.155"/>
				<rect x="328.833" y="132.667" style="fill:#F5F5F5;" width="96.192" height="1.155"/>
				<rect x="328.833" y="135.289" style="fill:#F5F5F5;" width="96.192" height="1.155"/>
				<rect x="328.833" y="137.911" style="fill:#F5F5F5;" width="96.192" height="1.155"/>
				<rect x="328.833" y="140.534" style="fill:#F5F5F5;" width="96.192" height="1.155"/>
				<rect x="328.833" y="143.156" style="fill:#F5F5F5;" width="96.192" height="1.155"/>
				<rect x="328.833" y="145.779" style="fill:#F5F5F5;" width="96.192" height="1.155"/>
				<rect x="328.833" y="148.401" style="fill:#F5F5F5;" width="96.192" height="1.155"/>
				<rect x="328.833" y="151.023" style="fill:#F5F5F5;" width="96.192" height="1.155"/>
				<rect x="328.833" y="153.646" style="fill:#F5F5F5;" width="96.192" height="1.155"/>
				<rect x="328.833" y="156.268" style="fill:#F5F5F5;" width="96.192" height="1.155"/>
				<rect x="328.833" y="158.891" style="fill:#F5F5F5;" width="96.192" height="1.155"/>
			</g>
		</g>
		<g>
			
				<rect x="84.704" y="122.318" transform="matrix(-1.836970e-16 1 -1 -1.836970e-16 309.826 50.5111)" style="fill:#E0E0E0;" width="89.908" height="115.701"/>
			
				<rect x="73.411" y="136.818" transform="matrix(-1 -1.224647e-16 1.224647e-16 -1 259.3149 360.3374)" style="fill:#EBEBEB;" width="112.493" height="86.701"/>
			<line style="fill:none;stroke:#E0E0E0;stroke-miterlimit:10;" x1="127.77" y1="152.48" x2="127.77" y2="164.57"/>
			<polyline style="fill:none;stroke:#E0E0E0;stroke-miterlimit:10;" points="100.277,203.492 100.277,164.57 151.309,164.57 
				151.309,186.897 			"/>
			<polyline style="fill:none;stroke:#E0E0E0;stroke-miterlimit:10;" points="138.105,198.78 138.105,186.897 166.159,186.897 
				166.159,199.195 			"/>
			<rect x="114.866" y="148.037" style="fill:#F5F5F5;" width="25.808" height="8.885"/>
			<rect x="139.39" y="169.355" style="fill:#F5F5F5;" width="24.598" height="9.651"/>
			<rect x="129.658" y="193.802" style="fill:#F5F5F5;" width="16.895" height="9.956"/>
			<rect x="157.113" y="195.414" style="fill:#F5F5F5;" width="18.092" height="7.563"/>
			<rect x="88.404" y="171.398" style="fill:#F5F5F5;" width="27.946" height="12.894"/>
			<rect x="91.353" y="198.78" style="fill:#F5F5F5;" width="17.847" height="9.424"/>
			
				<rect x="125.045" y="162.159" transform="matrix(0.7071 0.7071 -0.7071 0.7071 154.0108 -42.0541)" style="fill:#F5F5F5;" width="5.45" height="5.45"/>
			
				<rect x="148.584" y="184.172" transform="matrix(0.7071 0.7071 -0.7071 0.7071 176.4734 -52.2504)" style="fill:#F5F5F5;" width="5.45" height="5.45"/>
		</g>
		<g>
			<circle style="fill:#E0E0E0;" cx="129.657" cy="106.26" r="16.304"/>
			<circle style="fill:#F0F0F0;" cx="129.657" cy="106.26" r="13.863"/>
			
				<polyline style="fill:#F0F0F0;stroke:#E0E0E0;stroke-width:2;stroke-linecap:round;stroke-linejoin:round;stroke-miterlimit:10;" points="
				130.311,96.751 130.311,106.441 136.734,102.807 			"/>
		</g>
	</g>
</g>
<g id="Background_Simple" style="display:none;">
	<g style="display:inline;">
		<path style="fill:#407BFF;" d="M249.329,89.677c-75.183,33.826-6.933,94.114-50.343,126.948
			c-43.411,32.834-161.439-5.124-116.445,80.138c52.852,100.152,284.293,86.244,334.195-36.598
			C466.636,137.322,324.512,55.851,249.329,89.677z"/>
		<path style="opacity:0.9;fill:#FFFFFF;" d="M249.329,89.677c-75.183,33.826-6.933,94.114-50.343,126.948
			c-43.411,32.834-161.439-5.124-116.445,80.138c52.852,100.152,284.293,86.244,334.195-36.598
			C466.636,137.322,324.512,55.851,249.329,89.677z"/>
	</g>
</g>
<g id="Shadow_1_">
	<ellipse id="_x3C_Path_x3E__359_" style="fill:#F5F5F5;" cx="250" cy="416.238" rx="193.889" ry="11.323"/>
</g>
<g id="Plant">
	<g>
		<g>
			<path style="fill:none;stroke:#407BFF;stroke-width:0.9446;stroke-miterlimit:10;" d="M117.067,347.584c0,0-6.62-5.519-12.296,0
				c-5.676,5.519-6.772,39.711-6.772,39.711"/>
			<path style="fill:none;stroke:#407BFF;stroke-width:0.9446;stroke-miterlimit:10;" d="M97.529,393.897
				c0,0,3.902-40.126-10.79-56.989"/>
			<path style="fill:none;stroke:#407BFF;stroke-width:0.9446;stroke-miterlimit:10;" d="M98.927,389.668
				c0,0-3.005-45.68,8.014-55.815"/>
			<path style="fill:none;stroke:#407BFF;stroke-width:0.9446;stroke-miterlimit:10;" d="M97.529,389.668
				c0,0-0.256-30.185-8.445-34.878c-8.189-4.693-12.363,10.612-12.363,10.612"/>
			<path style="fill:none;stroke:#407BFF;stroke-width:0.9446;stroke-miterlimit:10;" d="M100.764,389.668
				c0,0-1.336-23.173,5.009-31.455c6.344-8.282,13.023,3.548,13.023,3.548"/>
			<path style="fill:none;stroke:#407BFF;stroke-width:0.9446;stroke-miterlimit:10;" d="M98.553,392.772
				c0,0,4.103-54.194-2.687-63.377"/>
		</g>
		<g>
			<path style="fill:#407BFF;" d="M82.072,359.188c0,0,4.083,1.505,2.869,5.059s-14.125,9.402-14.125,9.402
				s-5.407-4.956-0.441-13.017C75.341,352.572,81.962,356.645,82.072,359.188z"/>
			<path style="opacity:0.4;fill:#FFFFFF;enable-background:new    ;" d="M82.072,359.188c0,0,4.083,1.505,2.869,5.059
				s-14.125,9.402-14.125,9.402s-5.407-4.956-0.441-13.017C75.341,352.572,81.962,356.645,82.072,359.188z"/>
		</g>
		<g>
			<path style="fill:#407BFF;" d="M99.822,352.423c0,0-4.348-0.182-4.595,3.565c-0.247,3.747,9.419,14.114,9.419,14.114
				s6.898-2.494,5.416-11.845C108.581,348.907,100.902,350.118,99.822,352.423z"/>
			<path style="opacity:0.4;fill:#FFFFFF;enable-background:new    ;" d="M99.822,352.423c0,0-4.348-0.182-4.595,3.565
				c-0.247,3.747,9.419,14.114,9.419,14.114s6.898-2.494,5.416-11.845C108.581,348.907,100.902,350.118,99.822,352.423z"/>
		</g>
		<g>
			<path style="fill:#407BFF;" d="M103.503,334.486c0,0-2.899-0.311-2.665-2.077c0.233-1.766,11.269-6.31,17.779,1.038
				c0,0-4.169,7.161-10.195,7.255C102.395,340.796,103.503,334.486,103.503,334.486z"/>
			<path style="opacity:0.4;fill:#FFFFFF;enable-background:new    ;" d="M103.503,334.486c0,0-2.899-0.311-2.665-2.077
				c0.233-1.766,11.269-6.31,17.779,1.038c0,0-4.169,7.161-10.195,7.255C102.395,340.796,103.503,334.486,103.503,334.486z"/>
		</g>
		<g>
			<path style="fill:#407BFF;" d="M98.102,330.198c0,0,2.625,1.269,3.36-0.353c0.736-1.622-6.226-11.315-15.638-8.522
				c0,0-0.249,8.283,4.816,11.549C95.704,336.139,98.102,330.198,98.102,330.198z"/>
			<path style="opacity:0.4;fill:#FFFFFF;enable-background:new    ;" d="M98.102,330.198c0,0,2.625,1.269,3.36-0.353
				c0.736-1.622-6.226-11.315-15.638-8.522c0,0-0.249,8.283,4.816,11.549C95.704,336.139,98.102,330.198,98.102,330.198z"/>
		</g>
		<g>
			<path style="fill:#407BFF;" d="M111.826,357.759c0,0-2.001-1.615,0.158-2.404c2.159-0.789,12.753-0.565,12.863,9.929
				c0,0-12.338,2.05-13.866-1.947C109.455,359.341,111.826,357.759,111.826,357.759z"/>
			<path style="opacity:0.4;fill:#FFFFFF;enable-background:new    ;" d="M111.826,357.759c0,0-2.001-1.615,0.158-2.404
				c2.159-0.789,12.753-0.565,12.863,9.929c0,0-12.338,2.05-13.866-1.947C109.455,359.341,111.826,357.759,111.826,357.759z"/>
		</g>
		<g>
			<path style="fill:#407BFF;" d="M86.666,334.223c0,0,2.001-1.615-0.158-2.404c-2.159-0.789-12.753-0.565-12.863,9.929
				c0,0,12.338,2.051,13.866-1.947C89.037,335.805,86.666,334.223,86.666,334.223z"/>
			<path style="opacity:0.4;fill:#FFFFFF;enable-background:new    ;" d="M86.666,334.223c0,0,2.001-1.615-0.158-2.404
				c-2.159-0.789-12.753-0.565-12.863,9.929c0,0,12.338,2.051,13.866-1.947C89.037,335.805,86.666,334.223,86.666,334.223z"/>
		</g>
		<g>
			<path style="fill:#407BFF;" d="M93.189,342.676c0,0,0.176-1.964-1.409-1.194c-1.585,0.77-7.108,6.728-1.383,12.382
				c0,0,7.706-5.707,6.317-8.679C95.324,342.212,93.189,342.676,93.189,342.676z"/>
			<path style="opacity:0.4;fill:#FFFFFF;enable-background:new    ;" d="M93.189,342.676c0,0,0.176-1.964-1.409-1.194
				c-1.585,0.77-7.108,6.728-1.383,12.382c0,0,7.706-5.707,6.317-8.679C95.324,342.212,93.189,342.676,93.189,342.676z"/>
		</g>
		<g>
			<path style="fill:#407BFF;" d="M113.615,345.475c0,0-1.196-1.567,0.556-1.761c1.751-0.194,9.601,1.901,7.773,9.736
				c0,0-9.563-0.719-9.972-3.974C111.561,346.221,113.615,345.475,113.615,345.475z"/>
			<path style="opacity:0.4;fill:#FFFFFF;enable-background:new    ;" d="M113.615,345.475c0,0-1.196-1.567,0.556-1.761
				c1.751-0.194,9.601,1.901,7.773,9.736c0,0-9.563-0.719-9.972-3.974C111.561,346.221,113.615,345.475,113.615,345.475z"/>
		</g>
		<polygon style="fill:#263238;" points="82.785,418.757 113.7,418.757 117.809,388.695 78.676,388.695 		"/>
		<polygon style="opacity:0.2;fill:#FFFFFF;enable-background:new    ;" points="82.785,418.757 113.7,418.757 117.809,388.695 
			78.676,388.695 		"/>
		<path style="fill:#263238;" d="M121.684,386.258v2.856c0,1.911-1.549,3.461-3.461,3.461H77.875c-1.911,0-3.461-1.549-3.461-3.461
			v-2.856H121.684z"/>
	</g>
</g>
<g id="Trash_bin">
	<g>
		<g>
			<path style="fill:#407BFF;" d="M372.368,392.28c-1.078-1.81,0.442-4.532,2.549-4.564c-0.923-2.597-0.012-5.736,2.157-7.435
				c0.274-0.215,0.588-0.415,0.936-0.416c0.373-0.001,0.703,0.226,1.006,0.444c1.984,1.426,3.969,2.852,5.954,4.277
				c0.454,0.326,0.925,0.671,1.182,1.168c1.217,2.358-3.17,5.379-1.366,7.325c0.518,0.559,1.352,0.674,1.998,1.078
				c1.417,0.886,1.588,2.831,2.248,4.366c0.661,1.535,2.963,2.726,3.844,1.306c-0.65-1.473,1.318-2.741,2.917-2.928
				c1.577-0.185,3.268-0.274,4.152-1.775c2.268,1.982,7.347-3.549,7.231-5.779c1.864,0.142,3.134,1.888,3.543,3.634
				c0.423,1.812,0.161,3.701,0.191,5.558c0.057,3.611,1.222,7.148,1.159,10.759c-0.05,2.81-1.135,5.93-3.708,7.061
				c-1.238,0.544-2.638,0.545-3.99,0.536c-9.765-0.062-19.53-0.125-29.295-0.188c-0.703-0.005-1.437-0.016-2.06-0.342
				c-1.322-0.69-1.601-2.426-1.724-3.912c-0.524-6.364-1.049-12.729-1.573-19.093C370.601,393.001,371.485,392.641,372.368,392.28z"
				/>
			<path style="opacity:0.3;fill:#FFFFFF;enable-background:new    ;" d="M372.368,392.28c-1.078-1.81,0.442-4.532,2.549-4.564
				c-0.923-2.597-0.012-5.736,2.157-7.435c0.274-0.215,0.588-0.415,0.936-0.416c0.373-0.001,0.703,0.226,1.006,0.444
				c1.984,1.426,3.969,2.852,5.954,4.277c0.454,0.326,0.925,0.671,1.182,1.168c1.217,2.358-3.17,5.379-1.366,7.325
				c0.518,0.559,1.352,0.674,1.998,1.078c1.417,0.886,1.588,2.831,2.248,4.366c0.661,1.535,2.963,2.726,3.844,1.306
				c-0.65-1.473,1.318-2.741,2.917-2.928c1.577-0.185,3.268-0.274,4.152-1.775c2.268,1.982,7.347-3.549,7.231-5.779
				c1.864,0.142,3.134,1.888,3.543,3.634c0.423,1.812,0.161,3.701,0.191,5.558c0.057,3.611,1.222,7.148,1.159,10.759
				c-0.05,2.81-1.135,5.93-3.708,7.061c-1.238,0.544-2.638,0.545-3.99,0.536c-9.765-0.062-19.53-0.125-29.295-0.188
				c-0.703-0.005-1.437-0.016-2.06-0.342c-1.322-0.69-1.601-2.426-1.724-3.912c-0.524-6.364-1.049-12.729-1.573-19.093
				C370.601,393.001,371.485,392.641,372.368,392.28z"/>
		</g>
		<g>
			<g>
				<path style="fill:#407BFF;" d="M365.543,361.315l0.374,4.592l0.267,3.279l0.683,8.544l0.395,4.892l0.534,6.525l0.224,2.798
					l0.064,0.833l0.267,3.279l0.363,4.518l0.224,2.798l0.235,2.83l0.267,3.29l0.203,2.51l0.224,2.788l0.096,1.218h5.991h5.052h7.295
					h5.052h7.295h5.052h5.981l0.096-1.218l0.224-2.798l0.203-2.488l0.267-3.289l0.234-2.841l0.225-2.798l0.363-4.507l0.267-3.29
					l0.075-0.833l0.224-2.798l0.523-6.525l0.395-4.902l0.694-8.534l0.267-3.279l0.374-4.592h-5.116h-3.3h-9.046h-3.3h-9.046h-3.301
					h-9.057h-3.29H365.543z M367.85,363.451h0.951l-0.876,0.876l0,0L367.85,363.451z M371.812,363.451h0.983l4.176,4.176
					l-4.667,4.667l-4.069-4.069l-0.085-1.111L371.812,363.451z M369.078,378.542l3.225-3.225l4.667,4.656l-4.667,4.667l-2.98-2.98
					L369.078,378.542z M412.322,381.661l-2.969,2.98l-4.667-4.667l4.667-4.656l3.225,3.225l0,0L412.322,381.661z M378.477,369.133
					l4.667,4.667l-4.667,4.667l-4.667-4.667L378.477,369.133z M378.477,366.122l-2.67-2.67h5.34L378.477,366.122z M384.65,375.317
					l4.667,4.656l-4.667,4.667l-4.656-4.667L384.65,375.317z M390.823,390.814l-4.657-4.667l4.657-4.656l4.667,4.656
					L390.823,390.814z M396.996,387.664l4.667,4.667l-4.656,4.657l-4.667-4.667L396.996,387.664z M389.317,392.32l-4.667,4.667
					l-4.656-4.657l4.656-4.667L389.317,392.32z M386.166,373.8l4.657-4.667l4.667,4.667l-4.667,4.667L386.166,373.8z
					 M396.996,375.317l4.667,4.656l-4.667,4.667l-4.656-4.667L396.996,375.317z M398.513,373.8l4.667-4.667l4.657,4.667
					l-4.657,4.667L398.513,373.8z M407.836,386.147l-4.657,4.667l-4.667-4.667l4.667-4.656L407.836,386.147z M403.18,393.837
					l4.657,4.667l-4.657,4.657l-4.667-4.657L403.18,393.837z M401.663,404.677l-4.667,4.667l-4.656-4.667l4.667-4.667
					L401.663,404.677z M390.823,403.16l-4.657-4.657l4.657-4.667l4.667,4.667L390.823,403.16z M389.317,404.677l-4.667,4.667
					l-4.656-4.667l4.656-4.667L389.317,404.677z M383.144,410.85l-3.022,3.023h-3.29l-3.022-3.023l4.667-4.667L383.144,410.85z
					 M378.477,403.16l-4.667-4.657l4.667-4.667l4.667,4.667L378.477,403.16z M378.477,390.814l-4.667-4.667l4.667-4.656l4.667,4.656
					L378.477,390.814z M384.158,363.451h0.983l4.176,4.176l-4.667,4.667l-4.656-4.667L384.158,363.451z M388.163,363.451h5.33
					l-2.67,2.67L388.163,363.451z M396.505,363.451h0.983l4.176,4.176l-4.667,4.667l-4.656-4.667L396.505,363.451z M405.839,363.451
					l-2.659,2.67l-2.67-2.67H405.839z M409.844,363.451l3.653,3.664l-0.086,1.111l-4.059,4.069l-4.667-4.667l4.176-4.176H409.844z
					 M413.796,363.451l-0.075,0.865l0,0l-0.865-0.865H413.796z M412.803,375.744l-1.944-1.944l2.286-2.285L412.803,375.744z
					 M411.874,387.161l-1.015-1.015l1.197-1.196l0,0L411.874,387.161L411.874,387.161z M411.233,395.108l-1.88,1.88l-4.667-4.657
					l4.667-4.667l2.296,2.307L411.233,395.108z M410.955,398.6l-0.096-0.096l0.107-0.107L410.955,398.6L410.955,398.6z
					 M410.143,408.543l-0.79,0.79l-4.667-4.657l4.667-4.667l1.378,1.378L410.143,408.543L410.143,408.543z M407.836,413.873
					l1.517-1.516l0.449,0.448l-0.085,1.068H407.836z M404.824,413.873h-3.289l-3.022-3.023l4.667-4.667l4.657,4.667L404.824,413.873
					z M395.479,413.873l1.517-1.516l1.516,1.516H395.479z M389.178,413.873l-3.012-3.023l4.657-4.667l4.667,4.667l-3.022,3.023
					H389.178z M383.133,413.873l1.517-1.516l1.517,1.516H383.133z M371.855,412.805l0.449-0.448l1.517,1.516h-1.88L371.855,412.805z
					 M370.926,401.388l1.378-1.378l4.667,4.667l-4.667,4.657l-0.801-0.791L370.926,401.388z M370.68,398.386l0.117,0.117
					l-0.096,0.096L370.68,398.386L370.68,398.386z M369.997,389.97l2.307-2.307l4.667,4.667l-4.667,4.657l-1.89-1.88L369.997,389.97
					z M369.591,384.951l1.207,1.196l-1.025,1.026L369.591,384.951z M368.501,371.504l2.296,2.296l-1.954,1.955L368.501,371.504
					L368.501,371.504z"/>
			</g>
			<g style="opacity:0.6;enable-background:new    ;">
				<path style="fill:#FFFFFF;" d="M365.543,361.315l0.374,4.592l0.267,3.279l0.683,8.544l0.395,4.892l0.534,6.525l0.224,2.798
					l0.064,0.833l0.267,3.279l0.363,4.518l0.224,2.798l0.235,2.83l0.267,3.29l0.203,2.51l0.224,2.788l0.096,1.218h5.991h5.052h7.295
					h5.052h7.295h5.052h5.981l0.096-1.218l0.224-2.798l0.203-2.488l0.267-3.289l0.234-2.841l0.225-2.798l0.363-4.507l0.267-3.29
					l0.075-0.833l0.224-2.798l0.523-6.525l0.395-4.902l0.694-8.534l0.267-3.279l0.374-4.592h-5.116h-3.3h-9.046h-3.3h-9.046h-3.301
					h-9.057h-3.29H365.543z M367.85,363.451h0.951l-0.876,0.876l0,0L367.85,363.451z M371.812,363.451h0.983l4.176,4.176
					l-4.667,4.667l-4.069-4.069l-0.085-1.111L371.812,363.451z M369.078,378.542l3.225-3.225l4.667,4.656l-4.667,4.667l-2.98-2.98
					L369.078,378.542z M412.322,381.661l-2.969,2.98l-4.667-4.667l4.667-4.656l3.225,3.225l0,0L412.322,381.661z M378.477,369.133
					l4.667,4.667l-4.667,4.667l-4.667-4.667L378.477,369.133z M378.477,366.122l-2.67-2.67h5.34L378.477,366.122z M384.65,375.317
					l4.667,4.656l-4.667,4.667l-4.656-4.667L384.65,375.317z M390.823,390.814l-4.657-4.667l4.657-4.656l4.667,4.656
					L390.823,390.814z M396.996,387.664l4.667,4.667l-4.656,4.657l-4.667-4.667L396.996,387.664z M389.317,392.32l-4.667,4.667
					l-4.656-4.657l4.656-4.667L389.317,392.32z M386.166,373.8l4.657-4.667l4.667,4.667l-4.667,4.667L386.166,373.8z
					 M396.996,375.317l4.667,4.656l-4.667,4.667l-4.656-4.667L396.996,375.317z M398.513,373.8l4.667-4.667l4.657,4.667
					l-4.657,4.667L398.513,373.8z M407.836,386.147l-4.657,4.667l-4.667-4.667l4.667-4.656L407.836,386.147z M403.18,393.837
					l4.657,4.667l-4.657,4.657l-4.667-4.657L403.18,393.837z M401.663,404.677l-4.667,4.667l-4.656-4.667l4.667-4.667
					L401.663,404.677z M390.823,403.16l-4.657-4.657l4.657-4.667l4.667,4.667L390.823,403.16z M389.317,404.677l-4.667,4.667
					l-4.656-4.667l4.656-4.667L389.317,404.677z M383.144,410.85l-3.022,3.023h-3.29l-3.022-3.023l4.667-4.667L383.144,410.85z
					 M378.477,403.16l-4.667-4.657l4.667-4.667l4.667,4.667L378.477,403.16z M378.477,390.814l-4.667-4.667l4.667-4.656l4.667,4.656
					L378.477,390.814z M384.158,363.451h0.983l4.176,4.176l-4.667,4.667l-4.656-4.667L384.158,363.451z M388.163,363.451h5.33
					l-2.67,2.67L388.163,363.451z M396.505,363.451h0.983l4.176,4.176l-4.667,4.667l-4.656-4.667L396.505,363.451z M405.839,363.451
					l-2.659,2.67l-2.67-2.67H405.839z M409.844,363.451l3.653,3.664l-0.086,1.111l-4.059,4.069l-4.667-4.667l4.176-4.176H409.844z
					 M413.796,363.451l-0.075,0.865l0,0l-0.865-0.865H413.796z M412.803,375.744l-1.944-1.944l2.286-2.285L412.803,375.744z
					 M411.874,387.161l-1.015-1.015l1.197-1.196l0,0L411.874,387.161L411.874,387.161z M411.233,395.108l-1.88,1.88l-4.667-4.657
					l4.667-4.667l2.296,2.307L411.233,395.108z M410.955,398.6l-0.096-0.096l0.107-0.107L410.955,398.6L410.955,398.6z
					 M410.143,408.543l-0.79,0.79l-4.667-4.657l4.667-4.667l1.378,1.378L410.143,408.543L410.143,408.543z M407.836,413.873
					l1.517-1.516l0.449,0.448l-0.085,1.068H407.836z M404.824,413.873h-3.289l-3.022-3.023l4.667-4.667l4.657,4.667L404.824,413.873
					z M395.479,413.873l1.517-1.516l1.516,1.516H395.479z M389.178,413.873l-3.012-3.023l4.657-4.667l4.667,4.667l-3.022,3.023
					H389.178z M383.133,413.873l1.517-1.516l1.517,1.516H383.133z M371.855,412.805l0.449-0.448l1.517,1.516h-1.88L371.855,412.805z
					 M370.926,401.388l1.378-1.378l4.667,4.667l-4.667,4.657l-0.801-0.791L370.926,401.388z M370.68,398.386l0.117,0.117
					l-0.096,0.096L370.68,398.386L370.68,398.386z M369.997,389.97l2.307-2.307l4.667,4.667l-4.667,4.657l-1.89-1.88L369.997,389.97
					z M369.591,384.951l1.207,1.196l-1.025,1.026L369.591,384.951z M368.501,371.504l2.296,2.296l-1.954,1.955L368.501,371.504
					L368.501,371.504z"/>
			</g>
		</g>
		<path style="fill:#407BFF;" d="M417.381,365.356h-53.108c-0.908,0-1.643-0.736-1.643-1.643v-2.659
			c0-0.908,0.736-1.643,1.643-1.643h53.107c0.908,0,1.643,0.736,1.643,1.643l0,2.659
			C419.024,364.621,418.288,365.356,417.381,365.356z"/>
		<path style="fill:#407BFF;" d="M368.34,418.757h44.975c0.908,0,1.643-0.736,1.643-1.643v-2.659c0-0.908-0.736-1.643-1.643-1.643
			H368.34c-0.908,0-1.643,0.736-1.643,1.643v2.659C366.696,418.022,367.432,418.757,368.34,418.757z"/>
	</g>
</g>
<g id="Speech_bubble">
	<g>
		<g>
			<path style="fill:#407BFF;" d="M213.917,123.308h-33.47c-6.356,0-11.509,5.152-11.509,11.508v32.527
				c0,6.356,5.153,11.508,11.508,11.508h4.55l0.031,12.151l7.71-12.151h21.179c6.356,0,11.508-5.153,11.508-11.508v-32.527
				C225.426,128.46,220.273,123.308,213.917,123.308z"/>
			<path style="opacity:0.4;fill:#FFFFFF;" d="M213.917,123.308h-33.47c-6.356,0-11.509,5.152-11.509,11.508v32.527
				c0,6.356,5.153,11.508,11.508,11.508h4.55l0.031,12.151l7.71-12.151h21.179c6.356,0,11.508-5.153,11.508-11.508v-32.527
				C225.426,128.46,220.273,123.308,213.917,123.308z"/>
		</g>
		<g>
			<path style="fill:#FFFFFF;" d="M202.72,145.755c0-2.442-2.093-4.099-5.45-4.099c-3.226,0-5.581,1.221-7.107,3.357l-4.229-2.747
				c2.441-3.314,6.366-5.32,11.816-5.32c6.41,0,10.683,2.921,10.683,7.936c0,7.107-7.456,7.762-7.456,12.907h-5.538
				C195.438,151.336,202.72,150.115,202.72,145.755z M194.74,164.809c0-1.875,1.439-3.357,3.488-3.357
				c2.006,0,3.445,1.482,3.445,3.357c0,1.875-1.439,3.401-3.445,3.401C196.179,168.21,194.74,166.684,194.74,164.809z"/>
		</g>
	</g>
</g>
<g id="Character">
	<g>
		<g>
			<path style="fill:#263238;" d="M142.855,270.106c0,0,2.816,56.472,14.978,66.195h-13.007c0,0-11.6-19.239-12.464-66.195H142.855z
				"/>
			<path style="opacity:0.2;fill:#FFFFFF;enable-background:new    ;" d="M142.855,270.106c0,0,2.816,56.472,14.978,66.195h-13.007
				c0,0-11.6-19.239-12.464-66.195H142.855z"/>
			<path style="fill:#263238;" d="M133.081,278.07h12.314c3.607,0,6.212-3.241,5.819-7.24l-0.525-5.337
				c-0.394-3.998-3.637-7.24-7.244-7.24H131.13c-3.607,0-6.212,3.241-5.819,7.24l0.525,5.337
				C126.23,274.829,129.474,278.07,133.081,278.07z"/>
			<path style="fill:#263238;" d="M131.17,282.469l20.837,0c6.104,0,10.513-5.485,9.847-12.251l-0.889-9.032
				c-0.666-6.766-6.154-12.251-12.259-12.251h-20.837c-6.104,0-10.513,5.485-9.847,12.251l0.889,9.031
				C119.577,276.984,125.066,282.469,131.17,282.469z"/>
			<path style="opacity:0.5;fill:#FFFFFF;" d="M131.17,282.469l20.837,0c6.104,0,10.513-5.485,9.847-12.251l-0.889-9.032
				c-0.666-6.766-6.154-12.251-12.259-12.251h-20.837c-6.104,0-10.513,5.485-9.847,12.251l0.889,9.031
				C119.577,276.984,125.066,282.469,131.17,282.469z"/>
		</g>
		<g>
			<path style="fill:#263238;" d="M199.867,330.53h-58.473c-2.481,0-4.493,2.012-4.493,4.493v4.866h67.458v-4.866
				C204.36,332.542,202.348,330.53,199.867,330.53z"/>
			<path style="opacity:0.5;fill:#FFFFFF;" d="M199.867,330.53h-58.473c-2.481,0-4.493,2.012-4.493,4.493v4.866h67.458v-4.866
				C204.36,332.542,202.348,330.53,199.867,330.53z"/>
			<path style="fill:#263238;" d="M139.247,400.55l26.005-2.267V364.13h9.143v34.144l26.098,2.276
				c2.299,0.226,4.052,2.159,4.052,4.47v3.464h-33.827h-1.695h-33.828v-3.464C135.195,402.709,136.947,400.776,139.247,400.55z"/>
			<path style="fill:#263238;" d="M196.126,412.78c0,3.301,2.676,5.977,5.977,5.977c3.301,0,5.977-2.676,5.977-5.977
				c0-3.301-2.676-5.977-5.977-5.977C198.802,406.803,196.126,409.479,196.126,412.78z"/>
			<path style="fill:#263238;" d="M143.613,412.78c0,3.301-2.676,5.977-5.977,5.977s-5.977-2.676-5.977-5.977
				c0-3.301,2.676-5.977,5.977-5.977S143.613,409.479,143.613,412.78z"/>
			<path style="fill:#263238;" d="M167.391,371.098h4.863c2.051,0,3.714-1.663,3.714-3.714v-29.717h-12.291v29.717
				C163.678,369.435,165.34,371.098,167.391,371.098z"/>
			<path style="opacity:0.2;fill:#FFFFFF;enable-background:new    ;" d="M167.391,371.098h4.863c2.051,0,3.714-1.663,3.714-3.714
				v-29.717h-12.291v29.717C163.678,369.435,165.34,371.098,167.391,371.098z"/>
			<g>
				<path style="fill:#263238;" d="M205.12,336.3h-68.978c-0.998,0-1.807,0.809-1.807,1.807v1.065c0,0.998,0.809,1.807,1.807,1.807
					h68.978c0.998,0,1.807-0.809,1.807-1.807v-1.065C206.927,337.109,206.118,336.3,205.12,336.3z"/>
			</g>
			<path style="opacity:0.2;fill:#FFFFFF;enable-background:new    ;" d="M196.126,412.78c0,3.301,2.676,5.977,5.977,5.977
				c3.301,0,5.977-2.676,5.977-5.977c0-3.301-2.676-5.977-5.977-5.977C198.802,406.803,196.126,409.479,196.126,412.78z"/>
			<path style="opacity:0.2;fill:#FFFFFF;enable-background:new    ;" d="M143.613,412.78c0,3.301-2.676,5.977-5.977,5.977
				s-5.977-2.676-5.977-5.977c0-3.301,2.676-5.977,5.977-5.977S143.613,409.479,143.613,412.78z"/>
		</g>
	</g>
	<g>
		<path style="fill:#263238;" d="M145.979,195.511c0,0,1.754-5.617,9.09-6.638c7.336-1.021,16.279,1.447,18.105,4.511
			c1.826,3.064,0.415,6.068,2.865,7.076c2.451,1.009,5.94,3.502,5.259,6c-0.681,2.498-3.149,7.568-0.426,8.565
			c2.723,0.997,4.426,4.982,3.234,7.032s-1.617,4.483-0.255,5.181c1.362,0.698,2.979,2.072,1.872,4.151s-2.213,2.372-0.511,4.14
			c1.702,1.768-1.245,5.747-1.245,5.747s-39.262,4.674-44.029,0.561c-4.768-4.113-1.789-7.737-0.768-8.819s-1.506-0.656-1.859-4.741
			s2.118-4.681,2.627-7.064c0.509-2.383-1.959-4.683-0.342-6.98c1.617-2.297,2.198-3.625,0.972-6.067
			C139.34,205.723,139.255,195.681,145.979,195.511z"/>
		<g>
			<path style="fill:#E4897B;" d="M213.37,235.529l8.705-1.163l-5.328-8.154c0,0-7.784,3.234-6.841,7.171L213.37,235.529z"/>
			<polygon style="fill:#E4897B;" points="228.839,228.898 221.878,223.442 216.747,226.212 222.075,234.367 			"/>
		</g>
		<path style="fill:#407BFF;" d="M215.468,235.604c0,0-9.99,35.226-17.843,33.094c-4.35-1.181-8.511-5.354-11.836-9.7
			c-4.368-5.715-7.292-11.757-7.292-11.757l0.011-0.127l-0.957-16.725c7.772,1.91,19.155,22.846,19.155,22.846l12.589-20.652
			L215.468,235.604z"/>
		<path style="opacity:0.7;fill:#FFFFFF;" d="M176.04,254.247c-10.596-9.947-23.9-16.662-23.9-16.662
			c0.785-0.091,1.593-0.171,2.402-0.239c6.089-0.501,11.074-0.865,16.502-0.558c1.366,0.08,2.766,0.193,4.143,0.307v0.011
			C178.601,244.926,176.04,254.247,176.04,254.247z"/>
		<g>
			<path style="fill:#407BFF;" d="M152.14,289.341c-0.751-8.456-3.778-23.952-8.991-40.227c-1.696-5.292,1.18-11.267,1.18-11.267
				s7.094-0.182,7.811-0.262c0.785-0.091,1.593-0.171,2.402-0.239c6.089-0.501,11.074-0.865,16.502-0.558
				c1.366,0.08,2.766,0.193,4.143,0.307c0.444,0.046,5.432,0.091,5.864,0.137c0,0,6.905,7.898,7.327,14.294
				c0.228,3.574,0.762,6.271,0.569,14.818c-0.034,5.804-0.454,13.463-0.841,21.623L152.14,289.341z"/>
			<path style="opacity:0.8;fill:#FFFFFF;" d="M152.14,289.341c-0.751-8.456-3.778-23.952-8.991-40.227
				c-1.696-5.292,1.18-11.267,1.18-11.267s7.094-0.182,7.811-0.262c0.785-0.091,1.593-0.171,2.402-0.239
				c6.089-0.501,11.074-0.865,16.502-0.558c1.366,0.08,2.766,0.193,4.143,0.307c0.444,0.046,5.432,0.091,5.864,0.137
				c0,0,6.905,7.898,7.327,14.294c0.228,3.574,0.762,6.271,0.569,14.818c-0.034,5.804-0.454,13.463-0.841,21.623L152.14,289.341z"/>
			<path style="fill:#263238;" d="M152.14,289.341l36.016-2.428c0,0,1.083,10.815,0.832,10.66
				c-0.251-0.155-38.552,1.351-38.552,1.351L152.14,289.341z"/>
			<polygon points="152.467,289.936 188.106,287.968 188.106,291.345 152.14,293.258 			"/>
			<path style="fill:none;stroke:#FFFFFF;stroke-width:0.5804;stroke-miterlimit:10;" d="M171.847,291.809l-0.155-1.98
				c-0.029-0.377,0.252-0.706,0.629-0.736l3.903-0.304c0.398-0.031,0.738,0.283,0.738,0.682v2.085c0,0.364-0.285,0.664-0.648,0.683
				l-3.749,0.199C172.195,292.459,171.876,292.179,171.847,291.809z"/>
		</g>
		<path style="fill:#263238;" d="M190.335,295.342c-9.563-0.955-22.004-1.719-38.195-2.083c0,0-12.072,28.432,2.244,36.926
			c4.326,2.566,11.464,3.582,19.322,3.749c9.116,0.194,16.63-7.112,16.63-16.23V295.342z"/>
		<path style="fill:#407BFF;" d="M155.065,314.086l-12.444-2.252l7.243-26.78c0,0-1.857-6.652-3.9-14.278
			c-0.511-1.915-1.033-3.889-1.544-5.839c-0.476-1.823-0.94-3.622-1.358-5.317c-1.277-5.05-2.229-9.24-2.298-10.598
			c-0.232-4.272-0.94-15.822,3.158-17.633c2.426-1.08,7.406,1.474,10.563,2.066c0,0,7.035,11.98,7.569,29.311
			C162.587,280.085,155.065,314.086,155.065,314.086z"/>
		<path style="fill:#407BFF;" d="M166.881,233.846c0,0,11.616,1.456,16.573,26.207c2.006,10.016,6.754,52.828,6.754,52.828
			l2.701-1.351l-3.752-25.513c0,0,1.351-29.576,0.3-35.649c-1.051-6.073-6.363-19.232-11.906-19.979
			C175.302,230.086,166.881,233.846,166.881,233.846z"/>
		<g>
			<path style="fill:#407BFF;" d="M167.423,233.501l0.533-0.476c0,0,10.17,0.852,17.148,9.572l-2.702,2.641l4.615,3.714
				l-2.198,20.258c0,0-7.032-23.901-10.071-29.642C174.749,239.568,169.659,234.604,167.423,233.501z"/>
			<path style="opacity:0.2;" d="M167.423,233.501l0.533-0.443c0,0,10.17,0.82,17.148,9.539l-2.702,2.641l4.615,3.714l-2.198,20.258
				c0,0-7.032-23.901-10.071-29.642C174.749,239.568,169.659,234.604,167.423,233.501z"/>
			<path style="fill:#407BFF;" d="M154.777,234.532c0,0,8.985,11.455,7.049,36.667l-9.664-18.124l3.078-4.952l-7.204-6.754
				c0,0,4.649-9.022,7.318-8.311L154.777,234.532z"/>
			<path style="opacity:0.2;" d="M154.777,234.532c0,0,8.985,11.455,7.049,36.667l-9.664-18.124l3.078-4.952l-7.204-6.754
				c0,0,4.649-9.022,7.318-8.311L154.777,234.532z"/>
		</g>
		<g>
			<path style="fill:#407BFF;" d="M155.536,232.513c0,0,2.728,1.038,11.458,0.346c0,0,3.296,3.062,4.333,6.273
				c1.037,3.211-2.272,6.323-7.558,3.507C158.483,239.824,155.536,232.513,155.536,232.513z"/>
			<path style="opacity:0.5;fill:#FFFFFF;" d="M155.536,232.513c0,0,2.728,1.038,11.458,0.346c0,0,3.296,3.062,4.333,6.273
				c1.037,3.211-2.272,6.323-7.558,3.507C158.483,239.824,155.536,232.513,155.536,232.513z"/>
			<path style="fill:#E4897B;" d="M173.174,239.117l-2.003,11.95l-15.717-13.748c3.323-3.665,1.229-13.327-0.387-18.597l4.45,3.335
				l6.624,4.951c-0.159,1.104-0.011,2.618,0.319,4.074c0.501,2.105,1.4,4.086,2.39,4.507L173.174,239.117z"/>
			<path style="opacity:0.2;" d="M166.459,231.082c-2.641-0.592-6.1-3.323-6.658-6.021c-0.228-1.138-0.33-2.253-0.285-3.005
				l6.624,4.951C165.981,228.111,166.129,229.625,166.459,231.082z"/>
			<path style="fill:#407BFF;" d="M155.536,232.513c0,0,7.417,6.98,15.311,17.936c0,0,1.566-12.008-3.853-17.59l1.245-0.148
				c0,0,6.949,4.385,11.576,10.459l-5.215-1.651l-3.56,9.643l-10.735-8.857l-7.217,1.25
				C153.087,243.554,152.761,234.651,155.536,232.513z"/>
			<path style="opacity:0.7;fill:#FFFFFF;" d="M155.536,232.513c0,0,7.417,6.98,15.311,17.936c0,0,1.566-12.008-3.853-17.59
				l1.245-0.148c0,0,6.949,4.385,11.576,10.459l-5.215-1.651l-3.56,9.643l-10.735-8.857l-7.217,1.25
				C153.087,243.554,152.761,234.651,155.536,232.513z"/>
		</g>
		<g>
			<path style="fill:#E4897B;" d="M150.17,208.224c1.904,8.519,2.529,12.155,7.562,16.101c7.57,5.935,17.57,2.317,18.237-6.457
				c0.601-7.897-2.613-20.502-11.545-23.031C155.624,192.344,148.266,199.705,150.17,208.224z"/>
			<path style="fill:#263238;" d="M161.168,209.279c0.129,0.722,0.609,1.266,1.072,1.216c0.463-0.05,0.734-0.676,0.606-1.398
				c-0.129-0.722-0.609-1.266-1.072-1.216C161.311,207.931,161.04,208.557,161.168,209.279z"/>
			<path style="fill:#263238;" d="M170.16,208.026c0.129,0.722,0.609,1.267,1.072,1.216c0.463-0.05,0.735-0.676,0.606-1.398
				c-0.129-0.722-0.609-1.266-1.072-1.216C170.303,206.678,170.031,207.304,170.16,208.026z"/>
			<path style="fill:#263238;" d="M170.568,206.69l1.613-0.684C172.182,206.006,171.55,207.455,170.568,206.69z"/>
			<path style="fill:#DE5753;" d="M167.689,209.91c0,0,1.757,2.978,3.349,4.334c-0.777,0.991-2.441,0.756-2.441,0.756
				L167.689,209.91z"/>
			<path style="fill:#263238;" d="M161.792,202.425c-0.108,0.026-0.203,0.094-0.257,0.198c-0.842,1.619-2.408,1.719-2.426,1.72
				c-0.232,0.014-0.402,0.21-0.374,0.442c0.029,0.231,0.244,0.408,0.48,0.397c0.082-0.005,2.048-0.128,3.092-2.138
				c0.104-0.2,0.015-0.457-0.198-0.573C162.006,202.414,161.893,202.401,161.792,202.425z"/>
			<path style="fill:#263238;" d="M169.821,200.461c-0.105-0.009-0.211,0.021-0.294,0.092c-0.171,0.148-0.18,0.416-0.02,0.598
				c1.602,1.833,3.533,1.659,3.616,1.65c0.23-0.024,0.384-0.232,0.344-0.466c-0.04-0.233-0.26-0.403-0.49-0.381
				c-0.076,0.008-1.576,0.121-2.85-1.337C170.044,200.524,169.932,200.47,169.821,200.461z"/>
			<path style="fill:#263238;" d="M161.576,207.943l1.613-0.684C163.19,207.259,162.558,208.708,161.576,207.943z"/>
			<path style="fill:#263238;" d="M154.542,213.158c0,0,4.187-6.102,0.994-15.132c0,0,9.472-4.591,16.646,2.419
				c0,0-6.672-11.707-20.609-6.1c-13.938,5.607-3.43,18.988-1.705,20.102C151.592,215.559,154.542,213.158,154.542,213.158z"/>
			<path style="fill:#E4897B;" d="M148.469,215.587c1.247,1.637,3.045,2.533,4.611,2.717c2.356,0.277,3.033-2.102,1.958-4.287
				c-0.967-1.967-3.358-4.482-5.521-3.747C147.387,210.996,147.044,213.716,148.469,215.587z"/>
			
				<path style="fill:none;stroke:#263238;stroke-width:0.5804;stroke-linecap:round;stroke-linejoin:round;stroke-miterlimit:10;" d="
				M163.19,217.047c0,0,3.255-0.6,5.42,1.675"/>
		</g>
		<path style="opacity:0.2;" d="M144.42,264.936c-0.476-1.823-0.94-3.622-1.358-5.317c2.299-2.774,3.518-14.638,3.518-14.638
			S148.181,259.445,144.42,264.936z"/>
		<g>
			<path style="fill:#E4897B;" d="M115.061,236.53l-8.705-1.163l5.328-8.154c0,0,7.784,3.449,6.841,7.385L115.061,236.53z"/>
			<polygon style="fill:#E4897B;" points="99.592,229.898 106.553,224.442 111.684,227.213 106.356,235.367 			"/>
		</g>
		<path style="fill:#407BFF;" d="M112.964,236.604c0,0,9.99,35.226,17.843,33.094c4.35-1.181,8.511-5.354,11.836-9.7
			c4.368-5.715,4.97-11.756,4.97-11.756l-3.697-16.852c-4.68,0.975-12.189,22.846-12.189,22.846l-12.589-20.652L112.964,236.604z"/>
		<path style="fill:#263238;" d="M159.067,318.759v13.359c11.906,3.434,36.617,2.126,51.306,0.927
			c6.615-0.54,11.702-6.065,11.702-12.702v-10.96c0-3.634-2.247-6.883-5.648-8.162c-7.121-2.678-20.08-6.67-33.636-6.461
			C169.647,294.963,159.067,305.613,159.067,318.759z"/>
		<path style="fill:#E4897B;" d="M220.823,357.392c-4.33,11.701-9.333,26.351-14.673,44.843c-0.105,0.337-0.197,0.673-0.29,1.01
			c-0.104,0.36-0.209,0.708-0.313,1.068l-5.514-1.347l-2.078-0.511c0,0,0.081-0.813,0.255-2.264
			c0.035-0.302,0.069-0.627,0.105-0.975v-0.012c1.486-12.897,7.209-60.235,12.885-70.068c0,0-6.431,1.196-11.307,0.371
			c-3.517-0.592-7.777-24.911-7.777-24.911s8.962-2.577,18.155-2.577h0.128c0,0,20.581,3.227,24.029,8.288
			C238.665,316.519,232.06,327.025,220.823,357.392z"/>
		<g>
			<path style="fill:#407BFF;" d="M213.684,418.753l-12.92-5.7l-4.086-4.562l-1.265,1.718l-1.544-0.673
				c-0.72-5.734,2.066-8.416,3.529-9.635c0.104-0.093,0.255-0.197,0.429-0.337c0.058-0.047,0.116-0.093,0.174-0.128
				c0.023-0.012,0.047-0.035,0.069-0.046c0.058-0.046,0.128-0.093,0.198-0.151c0.011-0.012,0.023-0.012,0.047-0.023v-0.012
				c0.035-0.023,0.069-0.047,0.116-0.07l7.093,3.134c0,0,0.116,0.372,0.337,0.975c0.708,1.996,2.461,6.547,4.399,8.973
				c0.081,0.104,0.163,0.209,0.244,0.302c0.232,0.279,0.476,0.522,0.72,0.72C216.655,417.604,213.684,418.753,213.684,418.753z"/>
			<path style="fill:#E4897B;" d="M210.503,412.52c-2.02,0.789-4.876-1.207-7.046-3.819c-1.219-1.474-2.391-3.831-3.424-5.735
				c-0.673-1.23-1.289-2.275-1.823-2.774c-0.302-0.267-0.58-0.383-0.824-0.267c0,0,0.012-0.012,0.012-0.023
				c0.104-0.093,0.255-0.197,0.429-0.337c0.047-0.035,0.105-0.081,0.174-0.128c0.023-0.012,0.047-0.035,0.069-0.046
				c0.058-0.046,0.128-0.093,0.198-0.151c0.011-0.012,0.023-0.012,0.047-0.023v-0.012c0.035-0.023,0.069-0.047,0.116-0.07
				c0.743-0.557,1.567-1.126,1.567-1.126l5.7,2.519c0,0,0.163,0.673,0.453,1.706c0.743,2.635,2.31,7.65,4.109,9.983
				C210.341,412.322,210.422,412.427,210.503,412.52z"/>
		</g>
		<path style="opacity:0.1;enable-background:new    ;" d="M220.823,357.392c-4.33,11.701-9.333,26.351-14.673,44.843
			c0.743,2.635,2.31,7.65,4.109,9.983c0.081,0.104,0.163,0.209,0.244,0.302c0.232,0.279,0.476,0.522,0.72,0.72
			c5.433,4.365,2.461,5.514,2.461,5.514l-12.92-5.7l-4.086-4.562l-1.265,1.718l-1.544-0.673c-0.72-5.734,2.066-8.416,3.529-9.635
			c0.104-0.093,0.255-0.197,0.429-0.337c0.058-0.047,0.116-0.093,0.174-0.128c0.023-0.012,0.047-0.035,0.069-0.046
			c0.058-0.046,0.128-0.093,0.198-0.151c0.011-0.012,0.023-0.012,0.047-0.023v-0.012c1.486-12.897,7.209-60.235,12.885-70.068
			c0,0-6.431,1.196-11.307,0.371c-3.517-0.592-7.777-24.911-7.777-24.911s8.962-2.577,18.155-2.577h0.128
			c0,0-2.171,0.209-5.119,3.912c0,0,12.026,2.24,15.288,8.602C221.879,317.111,221.612,335.905,220.823,357.392z"/>
		<path style="fill:#E4897B;" d="M192.113,304.601c0,0,20.586,3.227,24.032,8.28c5.93,8.697-4.754,25.797-24.24,94.014l-7.598-1.867
			c0,0,2.027-61.897,8.601-73.308c0,0-6.426,1.186-11.301,0.368C175.345,331.038,171.385,310.142,192.113,304.601z"/>
		<g>
			<path style="fill:#407BFF;" d="M183.07,418.322l1.685-0.002l0.468-2.079l5.575,2.517h14.126c0,0,2.246-2.258-4.481-4.058
				c-0.306-0.082-0.624-0.2-0.953-0.365c-3.587-1.682-8.692-7.363-8.692-7.363h-7.751c0,0-0.271,0.388-0.635,1.117
				C181.565,409.795,180.102,413.374,183.07,418.322z"/>
			<path style="fill:#E4897B;" d="M182.412,408.089c0,0.012,0,0.023,0,0.023c1.023-1.141,5.681,3.87,9.092,5.575
				c3.046,1.517,6.469,2.188,7.986,0.647c-3.587-1.682-9.228-9.026-9.228-9.026h-6.233
				C184.028,405.309,182.776,407.36,182.412,408.089z"/>
		</g>
	</g>
</g>
<g id="Desk">
	<g>
		<g>
			<g style="enable-background:new    ;">
				<path style="fill:#263238;" d="M316.914,281.475v134.055c0,1.783,1.439,3.222,3.222,3.222h62.511
					c0.677,0,1.224-0.548,1.224-1.224v-3.985c0-0.677-0.548-1.235-1.224-1.235h-59.289V284.698h58.279
					c1.235,0,2.234-1.01,2.234-2.245v-4.2h-63.736C318.353,278.253,316.914,279.692,316.914,281.475z"/>
			</g>
			<g style="opacity:0.3;enable-background:new    ;">
				<path style="fill:#FFFFFF;" d="M316.914,281.475v134.055c0,1.783,1.439,3.222,3.222,3.222h62.511
					c0.677,0,1.224-0.548,1.224-1.224v-3.985c0-0.677-0.548-1.235-1.224-1.235h-59.289V284.698h58.279
					c1.235,0,2.234-1.01,2.234-2.245v-4.2h-63.736C318.353,278.253,316.914,279.692,316.914,281.475z"/>
			</g>
			<path style="opacity:0.2;" d="M316.914,281.475v34.188c2.148,0.548,4.296,1.074,6.444,1.579v-32.544h58.279
				c1.235,0,2.234-1.01,2.234-2.245v-4.2h-63.736C318.353,278.253,316.914,279.692,316.914,281.475z"/>
		</g>
		<g>
			<polygon style="fill:#263238;" points="309.615,269.051 308.823,266.055 276.25,266.055 261.25,267.553 260.679,269.051 			"/>
			<polygon style="opacity:0.5;fill:#FFFFFF;enable-background:new    ;" points="309.615,269.051 308.823,266.055 276.25,266.055 
				261.25,267.553 260.679,269.051 			"/>
			<polygon style="opacity:0.2;enable-background:new    ;" points="276.25,266.055 276.25,269.051 309.615,269.051 
				308.823,266.055 			"/>
		</g>
		<g>
			<path style="fill:#263238;" d="M287.273,246.767c-0.186,2.034,1.301,3.686,3.324,3.686h64.134c2.034,0,3.831-1.652,4.016-3.686
				l3.809-41.059c0.041-0.423,0.01-0.826-0.082-1.198c-0.361-1.445-1.631-2.488-3.242-2.488h-64.134
				c-2.034,0-3.83,1.652-4.016,3.686L287.273,246.767z"/>
			<path style="opacity:0.5;fill:#FFFFFF;enable-background:new    ;" d="M287.273,246.767c-0.186,2.034,1.301,3.686,3.324,3.686
				h64.134c2.034,0,3.831-1.652,4.016-3.686l3.809-41.059c0.041-0.423,0.01-0.826-0.082-1.198c-0.361-1.445-1.631-2.488-3.242-2.488
				h-64.134c-2.034,0-3.83,1.652-4.016,3.686L287.273,246.767z"/>
			<path style="opacity:0.1;enable-background:new    ;" d="M290.824,250.453h63.907c2.034,0,3.831-1.652,4.016-3.686l3.809-41.059
				c0.041-0.423,0.01-0.826-0.082-1.198h-63.907c-2.023,0-3.82,1.652-4.016,3.686l-3.81,41.059
				C290.7,249.678,290.731,250.081,290.824,250.453z"/>
			<polygon style="fill:#263238;" points="334.885,225.27 321.618,225.27 325.154,263.256 304.174,266.406 304.174,269.051 
				348.362,269.051 348.362,266.406 339.309,263.256 			"/>
			<polygon style="opacity:0.5;fill:#FFFFFF;enable-background:new    ;" points="334.885,225.27 321.618,225.27 325.154,263.256 
				304.174,266.406 304.174,269.051 348.362,269.051 348.362,266.406 339.309,263.256 			"/>
			<polygon style="opacity:0.2;fill:#FFFFFF;enable-background:new    ;" points="321.618,225.27 331.447,268.448 339.309,268.214 
				334.885,225.27 			"/>
		</g>
		<g>
			<g>
				<path style="fill:#263238;" d="M228.783,418.757h62.509c0.679,0,1.229-0.55,1.229-1.229v-3.987c0-0.679-0.55-1.229-1.229-1.229
					h-59.286V284.695h58.276c1.237,0,2.24-1.003,2.24-2.24v-4.205h-63.738c-1.78,0-3.222,1.443-3.222,3.222v134.062
					C225.561,417.315,227.003,418.757,228.783,418.757z"/>
			</g>
			<g style="opacity:0.4;enable-background:new    ;">
				<path style="fill:#FFFFFF;" d="M228.783,418.757h62.509c0.679,0,1.229-0.55,1.229-1.229v-3.987c0-0.679-0.55-1.229-1.229-1.229
					h-59.286V284.695h58.276c1.237,0,2.24-1.003,2.24-2.24v-4.205h-63.738c-1.78,0-3.222,1.443-3.222,3.222v134.062
					C225.561,417.315,227.003,418.757,228.783,418.757z"/>
			</g>
			<g>
				<path style="fill:#407BFF;" d="M387.65,272.157v5.21c0,1.08-0.87,1.95-1.95,1.95H220.63c-1.07,0-1.94-0.87-1.94-1.95v-5.21
					H387.65z"/>
			</g>
			
				<rect x="218.691" y="272.152" transform="matrix(-1 -1.224647e-16 1.224647e-16 -1 606.3381 547.8851)" style="opacity:0.2;enable-background:new    ;" width="168.956" height="3.581"/>
			<g>
				<path style="fill:#407BFF;" d="M393.21,271.067c0,1.12-0.91,2.02-2.02,2.02H215.15c-0.56,0-1.07-0.23-1.43-0.59
					c-0.1-0.1-0.19-0.21-0.26-0.34c-0.21-0.31-0.33-0.69-0.33-1.09c0-1.11,0.9-2.02,2.02-2.02h176.04c0.55,0,1.06,0.23,1.43,0.59
					C392.98,270.007,393.21,270.517,393.21,271.067z"/>
			</g>
			<path style="opacity:0.2;fill:#FFFFFF;enable-background:new    ;" d="M300.61,269.637c-0.37-0.36-0.87-0.59-1.43-0.59h-84.03
				c-1.12,0-2.02,0.91-2.02,2.02c0,0.4,0.12,0.78,0.33,1.09c0.07,0.13,0.16,0.24,0.26,0.34c0.36,0.36,0.87,0.59,1.43,0.59h3.54v4.28
				c0,1.08,0.87,1.95,1.94,1.95h73.07c1.07,0,1.94-0.87,1.94-1.95v-4.28h3.54c0.72,0,1.34-0.37,1.71-0.93
				c0.2-0.31,0.31-0.69,0.31-1.09C301.2,270.517,300.98,270.007,300.61,269.637z"/>
		</g>
	</g>
</g>
</svg>
